<svg xmlns="http://www.w3.org/2000/svg" width="128" height="128" viewBox="0 0 128 128">
  <defs>
    <linearGradient id="gradient" x1="0%" y1="0%" x2="100%" y2="100%">
      <stop offset="0%" stop-color="#1890ff" />
      <stop offset="100%" stop-color="#722ed1" />
    </linearGradient>
  </defs>
  <rect width="128" height="128" rx="24" fill="#ffffff" />
  <circle cx="64" cy="64" r="48" fill="url(#gradient)" />
  <path d="M64 40c-6.627 0-12 5.373-12 12v24c0 6.627 5.373 12 12 12s12-5.373 12-12V52c0-6.627-5.373-12-12-12zm0 8c2.21 0 4 1.79 4 4v24c0 2.21-1.79 4-4 4s-4-1.79-4-4V52c0-2.21 1.79-4 4-4z" fill="white" />
  <path d="M88 64c0-2.21-1.79-4-4-4s-4 1.79-4 4c0 8.837-7.163 16-16 16s-16-7.163-16-16c0-2.21-1.79-4-4-4s-4 1.79-4 4c0 12.15 9.84 22 22 22h4c12.15 0 22-9.85 22-22z" fill="white" />
  <circle cx="64" cy="28" r="4" fill="white" />
</svg>